# xmcd CD database file
#
# Track frame offsets:
#	150
#	20427
#	41485
#	51562
#	59352
#	72252
#	93672
#	109605
#	127042
#	147267
#	164357
#	184562
#	193650
#	205807
#	215037
#
# Disc length: 3166 seconds
#
# Revision: 0
# Processed by: cddbd v1.5.2PL0 Copyright (c) Steve Scherf et al.
# Submitted via: CDex 1.70beta2
#
DISCID=e50c5c0f
DTITLE=Various Artist - Mother
DYEAR=2006
DGENRE=New Age
TTITLE0=Exhale - Deepak Chopra and Adam Plack
TTITLE1=Late Summer Rain - Mystic Diversions
TTITLE2=Your Time Will Come - Ghostland
TTITLE3=Acceptance - Cyril Morin
TTITLE4=Calling My Mermaid - Mystic Diversions
TTITLE5=Lady of Silence - Deepak Chopra and Adam Plack
TTITLE6=Sous Tes Alies - Tom and Joy
TTITLE7=Time - Riccardo Eberspacher
TTITLE8=Donaldo - Benet
TTITLE9=My Heart - Csilla
TTITLE10=Mystic Garden - Chant
TTITLE11=Maniwalll - Cyril Morin
TTITLE12=Quiet - Lotus
TTITLE13=Cherubin - Coco De Mer
TTITLE14=Exhale (Reprise) - Deepak Chopra and Adam Plack
EXTD=YEAR: 2006
EXTT0=
EXTT1=
EXTT2=
EXTT3=
EXTT4=
EXTT5=
EXTT6=
EXTT7=
EXTT8=
EXTT9=
EXTT10=
EXTT11=
EXTT12=
EXTT13=
EXTT14=
PLAYORDER=
